<?xml version="1.0" encoding="UTF-8"?>
<svg width="16" height="16" viewBox="0 0 497 805" preserveAspectRatio="xMidYMid meet" xmlns="http://www.w3.org/2000/svg">
    <g transform="translate(-16.0596, 5.77734)" style="fill:#161413; fill-rule:evenodd; stroke:none; stroke-width:1; stroke-linecap:butt; stroke-linejoin:miter; stroke-dasharray:none;" >
        <path d="M264.592 793.353 C264.373 793.681 73.3477 506.613 53.6114 477.022 C0 396.64 25.6543 322.834 53.6114 251.867 C53.6114 251.867 152.831 0 152.831 0 C152.831 0 232.017 170.773 232.017 170.773 C248.845 164.965 280.338 165.006 297.166 170.773 C297.166 170.773 376.352 0 376.352 0 C376.352 0 475.572 251.867 475.572 251.867 C503.529 322.834 529.183 396.64 475.572 477.022 C475.572 477.022 264.592 793.353 264.592 793.353 Z" />
    </g>
    <g transform="translate(-16.0596, 5.77734)" style="fill:none; stroke:#161413; stroke-width:0.216; stroke-linecap:butt; stroke-linejoin:miter; stroke-dasharray:none;" >
        <path d="M264.592 793.353 C264.373 793.681 73.3477 506.613 53.6114 477.022 C0 396.64 25.6543 322.834 53.6114 251.867 C53.6114 251.867 152.831 0 152.831 0 C152.831 0 232.017 170.773 232.017 170.773 C248.845 164.965 280.338 165.006 297.166 170.773 C297.166 170.773 376.352 0 376.352 0 C376.352 0 475.572 251.867 475.572 251.867 C503.529 322.834 529.183 396.64 475.572 477.022 C475.572 477.022 264.592 793.353 264.592 793.353 Z" />
    </g>
    <g transform="translate(30.2207, 307.813)" style="fill:#ffffff; fill-rule:evenodd; stroke:none; stroke-width:1; stroke-linecap:butt; stroke-linejoin:miter; stroke-dasharray:none;" >
        <path d="M139.828 67.953 C181.101 114.549 195.968 169.203 172.922 189.617 C149.875 210.031 97.4153 188.676 56.1416 142.08 C14.8672 95.482 0 40.829 23.0469 20.415 C46.0938 0 98.5533 21.355 139.828 67.953 Z" />
    </g>
    <g transform="translate(30.2207, 307.813)" style="fill:none; stroke:#161413; stroke-width:0.216; stroke-linecap:butt; stroke-linejoin:miter; stroke-dasharray:none;" >
        <path d="M139.828 67.953 C181.101 114.549 195.968 169.203 172.922 189.617 C149.875 210.031 97.4153 188.676 56.1416 142.08 C14.8672 95.482 0 40.829 23.0469 20.415 C46.0938 0 98.5533 21.355 139.828 67.953 Z" />
    </g>
    <g transform="translate(176.173, 542.182)" style="fill:#ffffff; fill-rule:evenodd; stroke:none; stroke-width:1; stroke-linecap:butt; stroke-linejoin:miter; stroke-dasharray:none;" >
        <path d="M85.798 10.319 C85.798 10.319 136.959 99.094 136.959 99.094 C144.898 112.869 123.73 124.096 116.266 111.148 C116.266 111.148 72.359 34.993 72.359 34.993 C72.359 34.993 28.391 111.236 28.391 111.236 C20.837 124.338 0 112.169 7.574 99.078 C7.574 99.078 58.993 10.21 58.993 10.21 C64.901 0 79.955 0.181 85.798 10.319 Z" />
    </g>
    <g transform="translate(176.173, 542.182)" style="fill:none; stroke:#161413; stroke-width:0.216; stroke-linecap:butt; stroke-linejoin:miter; stroke-dasharray:none;" >
        <path d="M85.798 10.319 C85.798 10.319 136.959 99.094 136.959 99.094 C144.898 112.869 123.73 124.096 116.266 111.148 C116.266 111.148 72.359 34.993 72.359 34.993 C72.359 34.993 28.391 111.236 28.391 111.236 C20.837 124.338 0 112.169 7.574 99.078 C7.574 99.078 58.993 10.21 58.993 10.21 C64.901 0 79.955 0.181 85.798 10.319 Z" />
    </g>
    <g transform="translate(270.873, 307.813)" style="fill:#ffffff; fill-rule:evenodd; stroke:none; stroke-width:1; stroke-linecap:butt; stroke-linejoin:miter; stroke-dasharray:none;" >
        <path d="M56.142 67.953 C14.867 114.549 0 169.203 23.047 189.617 C46.094 210.031 98.554 188.676 139.827 142.08 C181.102 95.482 195.969 40.829 172.922 20.415 C149.875 0 97.415 21.355 56.142 67.953 Z" />
    </g>
    <g transform="translate(270.873, 307.813)" style="fill:none; stroke:#161413; stroke-width:0.216; stroke-linecap:butt; stroke-linejoin:miter; stroke-dasharray:none;" >
        <path d="M56.142 67.953 C14.867 114.549 0 169.203 23.047 189.617 C46.094 210.031 98.554 188.676 139.827 142.08 C181.102 95.482 195.969 40.829 172.922 20.415 C149.875 0 97.415 21.355 56.142 67.953 Z" />
    </g>
</svg>